<?xml version="1.0" standalone="no"?>
<!DOCTYPE svg PUBLIC "-//W3C//DTD SVG 20010904//EN"
 "http://www.w3.org/TR/2001/REC-SVG-20010904/DTD/svg10.dtd">
<svg version="1.0" xmlns="http://www.w3.org/2000/svg"
 width="587.000000pt" height="228.000000pt" viewBox="0 0 587.000000 228.000000"
 preserveAspectRatio="xMidYMid meet">

<g transform="translate(0.000000,228.000000) scale(0.100000,-0.100000)"
fill="#000000" stroke="none">
<path d="M927 2045 c-81 -29 -150 -55 -154 -58 -11 -11 6 -37 24 -37 10 0 29
-7 42 -16 18 -13 22 -23 18 -48 -5 -29 -259 -666 -372 -931 -59 -139 -64 -145
-130 -145 -54 0 -67 -8 -79 -47 l-7 -23 199 0 199 0 11 25 c19 41 15 45 -37
45 -28 0 -53 4 -56 10 -3 5 20 76 53 157 l58 148 32 -2 c18 0 39 -6 47 -13 26
-22 157 -243 158 -269 2 -21 -4 -28 -31 -37 -19 -6 -38 -17 -43 -25 -24 -37
-15 -39 201 -39 197 0 210 1 220 19 16 31 12 51 -10 51 -58 0 -86 26 -208 198
-67 93 -124 176 -127 185 -5 11 37 42 152 115 187 119 253 151 329 159 47 5
57 10 65 30 5 13 9 29 9 34 0 5 -77 9 -184 9 l-184 0 -11 -31 c-6 -18 -11 -33
-11 -35 0 -1 12 -4 27 -6 55 -6 38 -33 -64 -106 -149 -106 -243 -161 -290
-168 -27 -4 -43 -3 -43 4 0 13 232 582 309 756 33 77 61 141 61 143 0 8 -36
-2 -173 -52z"/>
<path d="M5350 1789 c-41 -17 -70 -50 -70 -81 0 -39 48 -68 115 -68 76 0 122
-17 166 -61 87 -87 101 -151 50 -231 -23 -36 -44 -53 -97 -79 -66 -33 -74 -34
-194 -36 l-125 -2 -72 -178 c-40 -98 -72 -184 -73 -191 0 -9 10 -12 26 -10 24
3 32 15 72 114 l45 111 86 7 c228 18 335 76 400 216 21 45 25 70 26 140 0 77
-3 92 -33 153 -38 76 -110 154 -168 182 -47 22 -119 29 -154 14z"/>
<path d="M4660 1699 c-67 -62 -216 -167 -287 -203 -76 -38 -71 -56 17 -56 39
0 70 -3 70 -6 0 -3 -52 -128 -116 -277 -71 -168 -116 -285 -116 -307 0 -27 8
-42 41 -72 41 -38 52 -42 136 -38 48 1 148 32 192 60 40 24 36 56 -6 45 -56
-15 -137 -22 -158 -14 -24 9 -37 40 -34 83 1 28 113 313 177 454 l33 72 138 0
138 0 27 42 c15 23 24 46 22 50 -3 4 -68 8 -144 8 l-139 0 45 95 c40 86 47
116 26 115 -4 -1 -32 -24 -62 -51z"/>
<path d="M1864 1531 c-78 -21 -173 -66 -244 -114 -77 -53 -178 -164 -210 -232
-94 -197 -66 -351 77 -421 52 -26 68 -29 153 -29 139 1 255 45 397 152 93 69
145 130 189 219 48 97 62 182 41 254 -20 68 -72 131 -132 160 -65 31 -179 36
-271 11z m174 -59 c72 -52 93 -174 48 -296 -96 -266 -331 -449 -490 -382 -114
48 -114 239 1 446 62 110 184 219 283 251 44 14 124 4 158 -19z"/>
<path d="M2794 1531 c-78 -21 -173 -66 -244 -114 -77 -53 -178 -164 -210 -232
-94 -197 -66 -351 77 -421 52 -26 68 -29 153 -29 139 1 255 45 397 152 93 69
145 130 189 219 48 97 62 182 41 254 -20 68 -72 131 -132 160 -65 31 -179 36
-271 11z m174 -59 c72 -52 93 -174 48 -296 -96 -266 -331 -449 -490 -382 -114
48 -114 239 1 446 62 110 184 219 283 251 44 14 124 4 158 -19z"/>
<path d="M3478 1493 c-154 -64 -163 -74 -98 -117 29 -19 40 -33 40 -52 0 -45
-380 -974 -412 -1006 -13 -13 -33 -18 -78 -18 -56 0 -60 -2 -75 -30 -8 -16
-15 -31 -15 -35 0 -3 98 -5 218 -5 l219 0 11 25 c19 41 15 45 -48 45 -45 0
-62 4 -66 15 -4 8 33 112 81 230 70 171 91 214 104 210 274 -86 607 71 755
355 41 78 76 188 76 238 0 77 -71 170 -147 191 -108 30 -294 -14 -401 -96
l-34 -26 7 24 c34 104 35 109 17 109 -9 -1 -79 -26 -154 -57z m442 -51 c80
-40 101 -133 59 -268 -68 -223 -209 -369 -366 -382 -108 -9 -213 34 -213 88 0
12 41 122 91 245 l91 224 54 37 c100 69 213 92 284 56z"/>
<path d="M4960 678 c-48 -25 -90 -77 -90 -114 0 -30 45 -64 84 -64 63 0 156
79 156 132 0 29 -45 68 -77 68 -16 0 -49 -10 -73 -22z"/>
<path d="M210 610 l0 -60 1385 0 1385 0 0 60 0 60 -1385 0 -1385 0 0 -60z"/>
<path d="M3380 610 l0 -60 570 0 570 0 0 60 0 60 -570 0 -570 0 0 -60z"/>
</g>
</svg>
