<!DOCTYPE svg PUBLIC "-//W3C//DTD SVG 20010904//EN" "http://www.w3.org/TR/2001/REC-SVG-20010904/DTD/svg10.dtd">
<svg version="1.0" xmlns="http://www.w3.org/2000/svg" width="587px" height="228px" viewBox="0 0 5870 2280" preserveAspectRatio="xMidYMid meet">
<g id="layer101" fill="#000000" stroke="none">
 <path d="M2840 2037 c0 -44 18 -57 81 -57 74 0 85 -11 136 -125 83 -189 355 -869 356 -893 2 -20 -7 -32 -40 -54 -44 -30 -52 -45 -31 -66 17 -17 297 -127 305 -119 3 4 0 31 -9 61 l-15 53 71 -38 c98 -52 164 -69 265 -69 105 0 150 22 199 94 43 65 44 136 3 253 -76 218 -271 401 -489 458 -66 18 -208 21 -277 5 -26 -6 -49 -9 -50 -8 -13 14 -165 413 -163 426 3 13 16 18 66 20 56 3 63 5 57 20 -4 9 -10 25 -12 35 -3 9 -8 17 -12 17 -3 0 -104 1 -224 3 -204 2 -217 1 -217 -16z m878 -584 c69 -33 148 -112 190 -191 40 -76 79 -188 88 -252 21 -160 -127 -232 -301 -145 -97 49 -106 62 -200 294 -96 238 -100 263 -48 293 73 43 181 43 271 1z"/>
 <path d="M4887 1762 c-40 -44 -7 -131 64 -167 41 -22 122 -20 142 3 37 40 8 124 -55 162 -44 27 -128 27 -151 2z"/>
 <path d="M210 1670 l0 -60 1385 0 1385 0 0 60 0 60 -1385 0 -1385 0 0 -60z"/>
 <path d="M3380 1670 l0 -60 570 0 570 0 0 60 0 60 -570 0 -570 0 0 -60z"/>
 <path d="M1576 1548 c-145 -19 -224 -106 -226 -249 -1 -210 177 -424 445 -535 64 -26 81 -29 190 -29 104 0 125 3 160 22 209 113 169 424 -81 623 -168 134 -327 188 -488 168z m199 -78 c128 -55 269 -237 320 -415 31 -106 -1 -212 -77 -251 -125 -65 -328 66 -431 276 -77 157 -93 261 -52 340 38 74 137 95 240 50z"/>
 <path d="M2506 1548 c-145 -19 -224 -106 -226 -249 -1 -210 177 -424 445 -535 64 -26 81 -29 190 -29 104 0 125 3 160 22 209 113 169 424 -81 623 -168 134 -327 188 -488 168z m199 -78 c128 -55 269 -237 320 -415 31 -106 -1 -212 -77 -251 -125 -65 -328 66 -431 276 -77 157 -93 261 -52 340 38 74 137 95 240 50z"/>
 <path d="M270 1527 c0 -41 19 -57 66 -57 82 0 84 -3 184 -245 137 -332 323 -792 331 -819 10 -36 -8 -62 -52 -71 -16 -4 -31 -10 -34 -15 -14 -23 18 -41 158 -90 84 -29 158 -55 165 -57 23 -9 12 33 -42 152 -45 100 -221 525 -295 712 l-20 50 47 -9 c34 -6 89 -36 207 -116 88 -59 161 -114 163 -123 2 -11 -6 -19 -22 -23 -28 -7 -33 -25 -16 -57 10 -18 23 -19 200 -19 105 0 190 2 190 4 0 1 -5 17 -11 34 -9 27 -16 31 -62 37 -29 4 -77 17 -107 29 -60 24 -380 223 -380 236 0 8 144 216 214 310 36 47 49 57 90 67 27 7 51 14 54 17 7 8 -19 66 -29 66 -97 3 -423 0 -426 -4 -2 -2 3 -18 12 -35 11 -22 23 -31 41 -31 55 0 44 -37 -60 -198 -54 -84 -71 -103 -98 -110 -38 -10 -35 -15 -108 177 -49 126 -48 131 28 131 47 0 49 3 24 43 l-17 28 -198 2 c-184 2 -197 1 -197 -16z"/>
 <path d="M4294 1531 c-43 -26 -74 -69 -74 -102 0 -15 52 -150 115 -299 63 -150 115 -274 115 -276 0 -2 -29 -4 -64 -4 -36 0 -67 -4 -70 -9 -10 -15 4 -40 26 -47 34 -10 249 -159 310 -213 96 -87 112 -64 49 70 l-40 84 145 3 c79 1 144 6 144 11 0 4 -16 29 -35 54 l-35 46 -137 3 -136 3 -39 90 c-80 185 -168 412 -168 436 0 66 50 83 160 55 30 -8 59 -11 63 -6 30 29 -37 76 -149 105 -79 20 -142 19 -180 -4z"/>
 <path d="M5040 1423 c0 -4 35 -92 77 -196 l77 -190 71 6 c190 16 348 -60 371 -178 8 -45 0 -66 -51 -128 -54 -67 -89 -84 -188 -93 -114 -10 -154 -51 -111 -112 37 -53 141 -69 219 -33 56 25 124 96 165 172 34 61 35 68 35 169 0 95 -3 110 -27 156 -15 28 -38 65 -52 81 -56 66 -218 123 -353 123 -32 0 -63 4 -69 8 -6 4 -30 55 -53 115 -43 107 -43 107 -77 107 -19 0 -34 -3 -34 -7z"/>
 </g>

</svg>